<?xml version="1.0" standalone="no"?>
<!DOCTYPE svg PUBLIC "-//W3C//DTD SVG 20010904//EN"
 "http://www.w3.org/TR/2001/REC-SVG-20010904/DTD/svg10.dtd">
<svg version="1.0" xmlns="http://www.w3.org/2000/svg"
 width="600.000000pt" height="600.000000pt" viewBox="0 0 600.000000 600.000000"
 preserveAspectRatio="xMidYMid meet" >

<g transform="translate(0.000000,600.000000) scale(0.100000,-0.100000)"
fill="#d5dfde" stroke="none">
<path d="M2920 5948 c-63 -32 -90 -77 -90 -148 0 -47 5 -64 29 -98 17 -22 39
-43 50 -47 12 -3 21 -15 21 -25 0 -11 8 -23 17 -28 16 -9 15 -15 -4 -88 -33
-122 -38 -131 -77 -144 -40 -13 -47 -35 -16 -45 11 -3 20 -9 20 -13 0 -13 -73
-117 -107 -153 -32 -33 -33 -38 -16 -43 37 -12 169 -25 248 -26 78 0 251 16
265 25 4 2 -13 26 -38 52 -24 26 -57 70 -73 98 l-28 49 31 13 c37 16 30 26
-26 46 -43 15 -48 24 -86 160 -16 56 -16 67 -4 67 8 0 14 7 14 17 0 9 19 32
41 51 71 61 87 134 46 212 -26 50 -90 90 -141 90 -18 0 -52 -10 -76 -22z m145
-78 c43 -45 42 -101 -3 -141 -77 -69 -187 -7 -168 95 15 77 116 104 171 46z"/>
<path d="M2585 5086 c-153 -36 -247 -71 -400 -147 -465 -230 -762 -622 -825
-1089 -6 -47 -17 -88 -23 -92 -23 -15 -77 -8 -97 12 -39 39 -15 110 37 110 21
0 53 -29 53 -48 0 -6 -10 -18 -22 -26 -12 -9 -17 -16 -11 -16 19 0 43 30 43
54 0 55 -81 76 -125 31 -65 -64 4 -169 100 -151 l35 7 0 -964 c0 -871 -2 -965
-16 -971 -56 -21 -114 11 -114 62 0 54 60 81 93 44 23 -25 21 -38 -5 -56 -25
-18 -17 -21 13 -6 27 15 25 64 -3 84 -76 53 -164 -40 -113 -118 22 -33 67 -50
110 -42 l35 7 2 -523 3 -522 70 -24 c290 -100 818 -152 1535 -152 730 0 1246
52 1636 166 l54 15 0 540 0 539 40 -6 c71 -11 130 33 130 96 0 29 -53 80 -82
80 -58 0 -95 -75 -49 -100 30 -15 38 -12 13 6 -26 18 -28 37 -6 58 21 22 50
20 74 -4 45 -45 10 -110 -58 -110 -21 0 -43 5 -50 12 -9 9 -12 235 -12 955 l0
943 27 -11 c41 -15 88 -2 117 32 30 35 32 58 11 98 -34 67 -135 50 -135 -22 0
-16 8 -30 19 -37 30 -15 38 -12 13 6 -26 18 -28 37 -6 58 35 35 94 6 94 -46 0
-52 -80 -89 -122 -55 -10 8 -21 50 -32 121 -56 375 -274 704 -623 944 -186
127 -401 217 -638 266 -61 13 -82 13 -165 0 -106 -15 -318 -18 -395 -4 -108
20 -131 19 -230 -4z m40 -36 c-5 -8 -11 -8 -17 -2 -6 6 -7 16 -3 22 5 8 11 8
17 2 6 -6 7 -16 3 -22z m775 -5 c0 -8 -7 -15 -15 -15 -8 0 -15 7 -15 15 0 8 7
15 15 15 8 0 15 -7 15 -15z m-642 -17 c-6 -18 -28 -21 -28 -4 0 9 7 16 16 16
9 0 14 -5 12 -12z m512 -9 c0 -5 -7 -9 -15 -9 -15 0 -20 12 -9 23 8 8 24 -1
24 -14z m-385 2 c7 -12 -12 -24 -25 -16 -11 7 -4 25 10 25 5 0 11 -4 15 -9z
m130 -10 c7 -12 -12 -24 -25 -16 -11 7 -4 25 10 25 5 0 11 -4 15 -9z m123 -2
c-2 -6 -8 -10 -13 -10 -5 0 -11 4 -13 10 -2 6 4 11 13 11 9 0 15 -5 13 -11z
m-517 -44 c73 -20 400 -29 589 -17 147 9 241 29 248 51 4 12 76 -9 207 -60
503 -197 855 -624 915 -1109 6 -54 10 -555 10 -1413 l0 -1329 -22 5 c-13 3
-49 11 -80 17 l-58 13 -1 141 c0 77 -6 740 -13 1471 l-13 1330 -22 70 c-70
216 -272 487 -481 644 -28 21 -20 12 20 -24 174 -156 295 -308 374 -470 97
-199 90 -40 76 -1690 -7 -797 -14 -1452 -16 -1454 -3 -3 -227 18 -230 22 -2 3
-14 1141 -20 2017 -6 912 -7 920 -70 1085 -73 188 -194 374 -342 524 l-95 96
91 -97 c189 -203 340 -483 375 -696 9 -60 11 -256 6 -862 -10 -1243 -20 -2054
-24 -2058 -2 -2 -55 -1 -118 3 l-114 7 -7 782 c-3 429 -9 1067 -12 1416 -2
359 -9 665 -15 705 -24 158 -93 363 -183 543 -26 51 -48 92 -50 92 -3 0 20
-52 50 -115 62 -130 124 -310 151 -435 14 -67 18 -131 18 -300 0 -506 -16
-2350 -21 -2508 l-7 -172 -106 0 c-70 0 -111 4 -119 12 -9 9 -12 86 -12 285
l0 273 98 2 97 2 -97 3 -98 4 0 134 0 135 83 2 82 2 -82 3 -83 4 0 69 0 70 69
0 c79 0 101 13 101 60 0 47 -22 60 -100 60 -38 0 -71 3 -73 8 -3 4 -6 315 -8
692 l-4 685 95 6 95 5 -97 2 -98 2 0 135 0 135 98 2 97 2 -96 3 -96 4 -8 72
c-13 139 -99 556 -111 544 -2 -2 7 -51 21 -108 13 -57 34 -158 46 -224 27
-151 31 -358 21 -1285 l-7 -675 -127 -3 -128 -3 0 126 0 125 36 50 c70 97 84
187 69 436 l-8 131 47 38 c25 22 46 42 46 45 0 3 -17 5 -38 6 -20 0 -65 6 -99
14 l-63 14 0 198 0 198 133 2 132 2 -135 6 -135 5 -3 143 -3 142 138 2 138 2
-136 3 -137 4 -7 112 c-4 61 -13 177 -21 257 l-13 145 4 -115 c3 -63 8 -179
11 -258 l7 -143 -144 3 -144 3 0 155 c0 85 3 216 6 290 5 95 4 117 -2 75 -5
-33 -13 -163 -17 -290 l-7 -230 -142 -3 -143 -3 0 79 c0 145 43 404 89 536 12
33 19 61 17 63 -6 6 -53 -142 -75 -237 -25 -105 -51 -301 -51 -381 l0 -59 -84
0 c-45 0 -111 -3 -146 -7 l-63 -6 7 83 c18 218 101 468 216 650 22 36 30 52
16 36 -118 -141 -256 -532 -256 -727 l0 -39 -47 -1 c-27 0 -90 -4 -142 -7 -68
-5 -95 -4 -98 5 -9 24 20 171 53 273 64 192 157 351 295 505 l71 80 -81 -83
c-185 -190 -336 -495 -357 -722 l-7 -67 -121 -12 c-66 -7 -130 -15 -140 -18
-18 -5 -19 0 -13 78 9 141 98 345 222 510 79 106 230 252 323 314 40 26 72 50
72 53 0 16 -173 -113 -259 -194 -207 -195 -391 -534 -391 -720 0 -39 -3 -44
-27 -49 -16 -4 -55 -12 -88 -20 -33 -8 -61 -13 -62 -11 -6 6 37 155 66 231 35
91 105 216 171 307 66 90 215 235 316 307 93 66 247 154 273 156 9 1 36 12 61
25 25 13 83 36 130 51 76 24 87 26 101 13 10 -9 41 -22 70 -29z m220 -1121
c-2 -76 -4 -139 -5 -139 0 -1 -63 1 -138 3 l-138 4 0 134 0 133 133 3 c72 2
137 3 142 2 6 0 9 -52 6 -140z m309 1 l0 -145 -139 0 -139 0 -4 138 c-2 75 -2
140 0 145 2 4 66 7 143 7 l139 0 0 -145z m-610 6 c0 -72 -3 -132 -7 -134 -5
-3 -69 -2 -143 2 l-135 6 0 120 0 120 115 6 c63 3 127 6 143 7 l27 2 0 -129z
m-310 -7 l0 -116 -137 7 c-76 4 -140 9 -142 11 -2 2 -4 47 -5 101 l-1 98 80 6
c44 3 108 6 143 7 l62 2 0 -116z m-310 1 c0 -92 -1 -95 -23 -95 -25 0 -173 17
-224 25 l-33 6 0 64 0 64 33 6 c43 8 174 22 215 24 l32 1 0 -95z m-310 1 l0
-64 -85 19 c-96 21 -105 24 -105 44 0 20 9 24 102 45 46 10 84 19 86 19 1 1 2
-28 2 -63z m-72 -81 c35 -8 66 -16 69 -18 2 -3 0 -398 -4 -878 l-8 -873 -80
-17 c-44 -10 -86 -18 -92 -18 -10 -1 -13 182 -13 883 0 486 3 898 6 915 6 29
10 32 33 26 14 -4 55 -13 89 -20z m259 -36 l122 -12 -5 -791 c-3 -435 -7 -814
-10 -842 l-5 -52 -42 -6 c-23 -3 -79 -8 -124 -12 l-83 -7 0 255 c0 140 -3 533
-7 873 -6 605 -6 617 13 612 10 -3 74 -11 141 -18z m429 -32 c0 -1 -2 -283 -5
-627 l-6 -624 -91 -44 c-87 -42 -92 -47 -118 -99 -15 -31 -25 -57 -23 -59 2
-2 31 10 65 26 l62 29 0 -30 0 -30 44 31 c25 16 47 30 50 30 3 0 6 -56 6 -124
l0 -123 -67 -6 c-38 -4 -93 -7 -124 -7 l-56 0 -6 413 c-4 226 -7 603 -7 836
l0 424 137 -7 c76 -4 138 -8 139 -9z m225 -7 l79 0 0 -513 0 -513 -47 -46
c-56 -55 -217 -154 -220 -136 -1 7 -4 285 -6 617 l-4 604 60 -7 c33 -3 95 -6
138 -6z m389 -309 l0 -309 -43 -54 c-24 -29 -84 -108 -134 -175 l-90 -121 -6
300 c-4 166 -7 384 -7 485 l0 183 140 0 140 0 0 -309z m308 112 l-3 -197 -43
-8 c-60 -10 -101 -38 -171 -116 l-61 -67 0 293 0 292 140 0 140 0 -2 -197z
m-12 -1170 c-4 -10 -28 -13 -101 -12 l-95 2 0 36 c0 55 12 111 21 105 5 -3 9
-33 10 -67 1 -75 17 -50 18 28 l1 50 65 23 c36 13 68 29 72 35 9 13 17 -179 9
-200z m-216 110 c0 -10 3 -42 6 -70 7 -52 6 -53 -20 -53 -26 0 -26 1 -26 70 0
63 2 70 20 70 12 0 20 -7 20 -17z m-90 -58 l0 -66 -127 3 -128 3 -3 57 -3 57
88 4 c48 1 107 4 131 5 l42 2 0 -65z m-310 -10 l0 -55 -77 0 c-85 0 -113 -14
-113 -58 0 -48 25 -62 112 -62 l78 0 0 -65 0 -65 -72 0 c-40 0 -96 -3 -124 -6
l-52 -7 -4 139 c-3 78 -1 144 5 151 14 19 189 80 235 82 8 1 12 -16 12 -54z
m310 -240 l0 -66 -127 3 -128 3 -3 49 c-5 78 -8 76 133 76 l125 0 0 -65z m305
0 l0 -60 -125 0 -125 0 -3 49 c-5 79 -8 77 130 74 l123 -3 0 -60z m305 -6 c0
-61 -2 -70 -16 -65 -9 3 -65 6 -125 6 l-109 0 0 65 0 65 125 0 125 0 0 -71z
m-306 -78 c3 -5 3 -70 -1 -145 l-6 -137 -121 3 -121 3 -3 129 c-1 72 0 136 2
143 6 15 241 19 250 4z m290 3 c14 -5 16 -28 16 -145 l0 -139 -125 0 -125 0 0
145 0 145 109 0 c60 0 116 -3 125 -6z m-904 -140 l0 -137 -52 7 c-29 3 -86 6
-125 6 l-73 0 0 125 0 124 108 4 c59 1 115 4 125 5 15 2 17 -10 17 -134z m310
2 c0 -74 -3 -137 -7 -139 -5 -2 -60 -2 -124 1 l-117 4 -4 127 c-3 69 -3 129
-1 134 2 4 60 7 129 7 l124 0 0 -134z m-620 -1 l0 -115 -33 0 c-19 0 -75 3
-125 6 l-92 7 0 103 0 103 73 4 c39 1 96 4 125 5 l52 2 0 -115z m-310 0 c0
-69 -3 -95 -12 -95 -24 0 -193 20 -215 25 -21 5 -23 11 -23 70 l0 64 33 6 c34
7 157 22 195 24 21 1 22 -2 22 -94z m-300 -1 l0 -57 -42 6 c-62 9 -148 36
-148 47 0 19 106 57 168 59 20 1 22 -3 22 -55z m-72 -76 l62 -12 -2 -345 -3
-345 -60 -13 c-33 -7 -72 -16 -87 -19 l-28 -6 0 382 0 382 28 -6 c15 -4 55
-12 90 -18z m272 -39 l100 -12 0 -307 0 -307 -116 -12 c-64 -7 -117 -11 -119
-9 -1 2 -5 150 -7 331 l-4 327 22 0 c13 0 68 -5 124 -11z m328 -26 l82 -6 -2
-286 -3 -286 -113 -8 c-63 -5 -115 -7 -118 -5 -2 2 -7 138 -10 301 l-7 297 44
0 c24 0 81 -3 127 -7z m300 -13 l95 0 -7 -272 c-5 -194 -10 -275 -19 -280 -7
-4 -60 -8 -119 -8 l-108 0 0 286 0 287 31 -7 c17 -3 74 -6 127 -6z m397 -42
c-1 -21 -2 -144 -3 -273 l-2 -235 -120 0 -120 0 0 275 0 276 123 -3 122 -3 0
-37z m305 -233 l0 -275 -120 0 -120 0 0 254 c0 140 -3 261 -6 270 -7 17 22 22
159 24 l87 2 0 -275z m310 0 l0 -275 -118 0 -119 0 -6 197 c-4 108 -7 231 -7
275 l0 78 125 0 125 0 0 -275z m-620 -440 l0 -135 -74 0 c-40 0 -94 3 -120 6
l-46 7 0 123 c0 143 -12 131 138 133 l102 1 0 -135z m308 3 l-3 -133 -117 -3
-118 -3 0 136 0 135 120 0 121 0 -3 -132z m274 126 l36 -6 -5 -122 c-3 -66 -7
-123 -9 -125 -2 -2 -53 -6 -114 -9 l-110 -5 0 137 0 136 83 0 c45 0 98 -3 119
-6z m-892 -130 l0 -126 -109 4 c-60 2 -112 5 -114 8 -3 3 -7 55 -9 117 -5 131
-18 120 135 122 l97 1 0 -126z m1193 120 l37 -7 0 -112 0 -112 -46 -7 c-26 -3
-78 -6 -115 -6 l-69 0 0 125 0 125 78 0 c42 0 94 -3 115 -6z m-1503 -120 l0
-115 -82 6 c-46 3 -98 8 -115 11 l-33 5 0 99 0 99 78 4 c42 1 94 4 115 5 l37
2 0 -116z m1828 100 c21 -4 22 -9 22 -98 l0 -94 -47 -6 c-27 -3 -78 -8 -114
-11 l-66 -6 -6 38 c-4 21 -7 73 -7 116 l0 77 98 -5 c53 -4 107 -8 120 -11z
m-2128 -88 c0 -47 -3 -87 -7 -89 -5 -3 -48 4 -98 14 -150 30 -136 22 -133 82
l3 52 95 11 c157 18 140 27 140 -70z m2345 69 c118 -11 116 -11 113 -63 l-3
-47 -70 -17 c-38 -10 -91 -21 -117 -24 l-48 -7 0 87 0 87 33 -5 c17 -3 59 -8
92 -11z m-2655 -61 c0 -25 -4 -35 -12 -32 -7 3 -38 13 -68 24 l-55 18 50 12
c81 20 85 19 85 -22z m2930 16 c23 -6 20 -8 -24 -23 -65 -22 -66 -22 -66 13 0
28 2 29 33 23 17 -3 43 -9 57 -13z m108 -257 c5 -17 -26 -29 -40 -15 -6 6 -7
15 -3 22 9 14 37 9 43 -7z m-3098 -13 c0 -21 -33 -29 -45 -10 -9 15 4 30 26
30 12 0 19 -7 19 -20z m2835 -26 c0 -10 -8 -20 -17 -22 -18 -3 -26 27 -11 42
12 11 28 0 28 -20z m-2577 -7 c4 -20 -25 -34 -40 -19 -15 15 -1 44 19 40 10
-2 19 -11 21 -21z m2325 -11 c8 -20 -20 -43 -35 -28 -14 14 -3 42 16 42 7 0
16 -6 19 -14z m-2070 -10 c7 -18 -11 -36 -29 -29 -21 8 -17 43 5 43 10 0 21
-6 24 -14z m1813 -7 c10 -17 -23 -46 -37 -32 -7 7 -9 19 -6 27 7 18 33 21 43
5z m-1556 -19 c0 -13 -7 -20 -20 -20 -13 0 -20 7 -20 20 0 13 7 20 20 20 13 0
20 -7 20 -20z m1298 -9 c-2 -9 -11 -17 -21 -19 -21 -4 -35 27 -17 38 19 12 42
0 38 -19z m-1038 0 c0 -22 -23 -34 -38 -19 -15 15 -3 38 19 38 12 0 19 -7 19
-19z m258 -4 c4 -21 -25 -34 -40 -19 -8 8 -8 16 2 27 16 19 34 15 38 -8z m262
-3 c0 -19 -28 -30 -42 -16 -8 8 -8 15 1 26 14 17 41 10 41 -10z m258 3 c4 -20
-25 -34 -40 -19 -15 15 -1 44 19 40 10 -2 19 -11 21 -21z"/>
<path d="M2579 4873 l-24 -28 28 24 c25 23 32 31 24 31 -2 0 -14 -12 -28 -27z"/>
<path d="M2389 4863 l-24 -28 28 24 c25 23 32 31 24 31 -2 0 -14 -12 -28 -27z"/>
<path d="M3820 4836 c0 -2 8 -10 18 -17 15 -13 16 -12 3 4 -13 16 -21 21 -21
13z"/>
<path d="M2519 4803 c-13 -16 -12 -17 4 -4 16 13 21 21 13 21 -2 0 -10 -8 -17
-17z"/>
<path d="M2710 4789 c-7 -11 -10 -23 -7 -25 2 -2 9 7 15 21 14 30 7 33 -8 4z"/>
<path d="M3520 4750 c6 -11 13 -20 16 -20 2 0 0 9 -6 20 -6 11 -13 20 -16 20
-2 0 0 -9 6 -20z"/>
<path d="M2901 4744 c0 -11 3 -14 6 -6 3 7 2 16 -1 19 -3 4 -6 -2 -5 -13z"/>
<path d="M3112 4720 c0 -19 2 -27 5 -17 2 9 2 25 0 35 -3 9 -5 1 -5 -18z"/>
<path d="M2892 4690 c0 -14 2 -19 5 -12 2 6 2 18 0 25 -3 6 -5 1 -5 -13z"/>
<path d="M2882 4620 c0 -19 2 -27 5 -17 2 9 2 25 0 35 -3 9 -5 1 -5 -18z"/>
<path d="M3351 4634 c0 -11 3 -14 6 -6 3 7 2 16 -1 19 -3 4 -6 -2 -5 -13z"/>
<path d="M3123 4580 c0 -36 2 -50 4 -32 2 17 2 47 0 65 -2 17 -4 3 -4 -33z"/>
<path d="M1266 3833 c-11 -11 -6 -23 9 -23 8 0 15 4 15 9 0 13 -16 22 -24 14z"/>
<path d="M4720 3825 c0 -9 5 -15 11 -13 6 2 11 8 11 13 0 5 -5 11 -11 13 -6 2
-11 -4 -11 -13z"/>
<path d="M4725 1909 c-10 -15 3 -25 16 -12 7 7 7 13 1 17 -6 3 -14 1 -17 -5z"/>
<path d="M1266 1873 c-11 -11 -6 -23 9 -23 8 0 15 4 15 9 0 13 -16 22 -24 14z"/>
<path d="M1350 651 c0 -60 3 -72 20 -81 11 -6 32 -33 46 -61 50 -101 26 -196
-62 -239 -50 -25 -68 -25 -121 -1 -47 22 -63 45 -63 94 0 31 39 100 40 70 0
-6 9 -14 20 -18 54 -17 87 63 35 87 -21 9 -28 8 -45 -7 -11 -10 -20 -24 -20
-31 0 -7 -11 -30 -25 -50 -29 -43 -31 -73 -9 -120 30 -62 120 -97 199 -75 43
11 106 66 133 115 12 22 17 55 17 108 -1 65 2 77 15 73 248 -78 694 -133 1218
-151 l202 -7 15 -50 c21 -70 19 -153 -5 -204 -16 -37 -23 -43 -49 -43 -43 0
-66 38 -66 111 0 59 -7 59 -19 2 -10 -44 10 -108 41 -132 40 -32 85 -27 121
13 49 56 64 110 60 213 l-3 91 185 6 c429 16 816 63 1129 137 68 16 124 29
125 29 0 0 1 -40 1 -88 0 -80 3 -92 28 -130 60 -91 162 -124 246 -80 25 13 54
36 65 51 28 38 27 97 -2 136 -12 17 -22 37 -22 45 0 9 -11 23 -24 31 -46 31
-97 -25 -60 -66 21 -23 42 -24 64 -4 15 14 19 14 29 1 7 -9 15 -32 18 -54 13
-100 -131 -158 -216 -86 -40 33 -65 102 -56 151 9 51 54 131 76 138 16 5 19
17 19 71 0 35 -1 64 -3 64 -2 0 -43 -14 -93 -30 -120 -42 -334 -94 -485 -119
-830 -138 -2051 -88 -2590 105 -41 14 -86 33 -101 40 l-28 15 0 -70z"/>
<path d="M2867 303 c-14 -23 -11 -67 6 -77 20 -13 37 5 37 40 0 30 -31 57 -43
37z"/>
</g>
</svg>
